<?xml version="1.0" encoding="utf-8"?>
<!-- Designed by Vexels.com - 2019 All Rights Reserved - https://vexels.com/terms-and-conditions/  -->
<svg version="1.1" id="Capa_1" xmlns="http://www.w3.org/2000/svg" xmlns:xlink="http://www.w3.org/1999/xlink" x="0px" y="0px"
	 viewBox="0 0 1200 1200" enable-background="new 0 0 1200 1200" xml:space="preserve">
<g>
	<g>
		<path fill="#EDE3C0" d="M1150,543.516c-18.632,0-35.504-6.672-47.718-17.461c-12.214-10.789-19.77-25.694-19.77-42.161
			c0-16.467,7.556-31.372,19.77-42.161c12.214-10.789,29.086-17.461,47.718-17.461l-57.245-31.863l-57.245-31.863H596.633H157.755v0
			v0l-53.878,32.828L50,426.202c18.632,0,35.504,6.672,47.718,17.461s19.77,25.694,19.77,42.161c0,16.467-7.556,31.372-19.77,42.161
			S68.632,545.447,50,545.447c18.632,0,35.504,6.5,47.718,17.006c12.214,10.506,19.77,25.02,19.77,41.047
			c0,16.027-7.556,30.541-19.77,41.047C85.504,655.054,68.632,661.553,50,661.553c18.632,0,35.504,6.5,47.718,17.006
			s19.77,25.02,19.77,41.047c0,16.027-7.556,30.541-19.77,41.047S68.632,777.66,50,777.66l53.878,30.897l53.878,30.897h438.878
			h438.878l57.245-31.863L1150,775.729c-18.632,0-35.504-6.5-47.718-17.006c-12.214-10.506-19.77-25.02-19.77-41.047
			c0-16.027,7.556-30.541,19.77-41.047c12.214-10.506,29.086-17.006,47.718-17.006c-18.632,0-35.504-6.5-47.718-17.006
			c-12.214-10.506-19.77-25.02-19.77-41.047c0-16.027,7.556-30.541,19.77-41.047C1114.496,550.016,1131.368,543.516,1150,543.516z"
			/>
	</g>
	<g>
		<path fill="#9F0709" d="M988.367,791.177H600H211.633c-9.284,0-17.703-3.249-23.8-8.494s-9.873-12.487-9.873-20.473V589.379
			V416.547c0-7.986,3.776-15.228,9.873-20.473s14.516-8.494,23.8-8.494H600h388.367c9.284,0,17.703,3.249,23.8,8.494
			s9.873,12.487,9.873,20.473v172.832v172.832c0,7.986-3.776,15.228-9.873,20.473S997.652,791.177,988.367,791.177z
			 M211.633,399.167c-5.571,0-10.622,1.949-14.28,5.096c-3.658,3.147-5.924,7.492-5.924,12.283v172.832v172.832
			c0,4.791,2.266,9.136,5.924,12.283s8.709,5.096,14.28,5.096H600h388.367c5.571,0,10.622-1.949,14.28-5.096
			c3.658-3.147,5.924-7.492,5.924-12.283V589.379V416.547c0-4.791-2.266-9.136-5.924-12.283c-3.658-3.147-8.709-5.096-14.28-5.096
			H600H211.633z"/>
	</g>
	<g>
		<polygon fill="#973631" points="263.265,550.691 268.566,564.725 273.867,578.758 291.021,578.758 308.174,578.758 
			294.297,587.431 280.419,596.105 285.72,610.138 291.021,624.172 277.143,615.499 263.265,606.825 249.388,615.499 
			235.51,624.172 240.811,610.138 246.112,596.105 232.234,587.431 218.356,578.758 235.51,578.758 252.664,578.758 
			257.965,564.725 		"/>
	</g>
	<g>
		<polygon fill="#973631" points="934.49,558.415 939.791,572.449 945.091,586.482 962.245,586.482 979.399,586.482 
			965.521,595.156 951.644,603.829 956.944,617.863 962.245,631.896 948.367,623.223 934.49,614.55 920.612,623.223 
			906.734,631.896 912.035,617.863 917.336,603.829 903.458,595.156 889.581,586.482 906.734,586.482 923.888,586.482 
			929.189,572.449 		"/>
	</g>
	<g>
		<polygon fill="#E48C59" points="950.204,456.134 606.735,456.134 263.265,456.134 263.265,451.307 263.265,446.479 
			606.735,446.479 950.204,446.479 950.204,451.307 		"/>
	</g>
	<g>
		<polygon fill="#E48C59" points="950.204,737.107 606.735,737.107 263.265,737.107 263.265,732.279 263.265,727.452 
			606.735,727.452 950.204,727.452 950.204,732.279 		"/>
	</g>
	<g>
		<g>
			<path fill="#DF632F" d="M426.821,545.887v10.171v10.171h-6.169h-6.169l-0.55-5.275l-0.55-5.275h-11.86h-11.86v36.231v36.231
				l5.985,0.884l5.985,0.884v3.98v3.98h-19.204h-19.204v-3.98v-3.98l5.985-0.884l5.985-0.884V591.91v-36.231h-11.898h-11.898
				l-0.514,5.275l-0.514,5.275h-6.205h-6.205v-10.171v-10.171h44.431H426.821z"/>
		</g>
		<g>
			<path fill="#DF632F" d="M434.68,553.911v-4.012v-4.012h19.206h19.205v4.012v4.012l-5.986,0.884l-5.986,0.884v36.231v36.231
				l5.986,0.884l5.986,0.884v3.98v3.98h-19.205H434.68v-3.98v-3.98l5.986-0.884l5.986-0.884V591.91v-36.231l-5.986-0.884
				L434.68,553.911z"/>
		</g>
		<g>
			<path fill="#DF632F" d="M566.287,574.127h-5.104h-5.104l-1.359-6.507l-1.359-6.507c-1.175-0.99-2.485-1.89-3.929-2.701
				c-1.444-0.811-3.023-1.532-4.737-2.164c-1.714-0.632-3.594-1.106-5.638-1.421c-2.044-0.316-4.254-0.474-6.628-0.474
				c-5.557,0-10.472,0.866-14.744,2.599s-7.9,4.33-10.886,7.794c-2.987,3.464-5.227,7.394-6.72,11.79
				c-1.493,4.396-2.24,9.258-2.24,14.585v0.727v0.727c0,5.328,0.731,10.195,2.194,14.602c1.463,4.406,3.656,8.352,6.582,11.837
				c2.926,3.486,6.417,6.1,10.474,7.842s8.681,2.614,13.871,2.614c2.425,0,4.739-0.163,6.942-0.49s4.296-0.816,6.278-1.469
				c1.984-0.653,3.741-1.379,5.271-2.179c1.53-0.8,2.833-1.674,3.911-2.622l1.359-6.507l1.359-6.507h5.104h5.104v8.181v8.181
				c-1.542,1.706-3.47,3.32-5.784,4.841c-2.314,1.521-5.013,2.951-8.097,4.287c-3.085,1.338-6.414,2.341-9.988,3.01
				c-3.574,0.669-7.393,1.003-11.457,1.003c-6.953,0-13.281-1.106-18.984-3.317s-10.782-5.528-15.237-9.95
				c-4.457-4.422-7.799-9.413-10.027-14.972s-3.342-11.687-3.342-18.384v-0.663v-0.663c0-6.739,1.096-12.895,3.287-18.47
				s5.478-10.568,9.86-14.98c4.381-4.411,9.442-7.72,15.183-9.926c5.74-2.206,12.161-3.309,19.26-3.309
				c4.063,0,7.882,0.34,11.457,1.019c3.574,0.679,6.904,1.698,9.988,3.055c3.085,1.359,5.784,2.799,8.097,4.32
				c2.314,1.521,4.242,3.124,5.784,4.809v8.181V574.127z"/>
		</g>
		<g>
			<path fill="#DF632F" d="M580.388,629.91l5.986-0.884l5.986-0.884V591.91v-36.231l-5.986-0.884l-5.986-0.884v-4.012v-4.012h19.206
				h19.206v4.012v4.012l-5.986,0.884l-5.986,0.884v15.446v15.446h5.545h5.545l14.946-15.889l14.946-15.889l-4.003-0.442
				l-4.003-0.442v-4.012v-4.012h16.965h16.965v4.012v4.012l-5.03,0.79l-5.03,0.79l-16.341,17.436l-16.341,17.436l17.846,18.984
				l17.846,18.984l5.03,0.79l5.03,0.79v3.98v3.98h-17.551H641.64v-3.98v-3.98l4.076-0.442l4.075-0.442l-15.239-16.331
				l-15.239-16.331h-6.244h-6.244v15.889v15.888l5.986,0.884l5.986,0.884v3.98v3.98h-19.206h-19.206v-3.98V629.91z"/>
		</g>
		<g>
			<path fill="#DF632F" d="M687.025,637.87v-3.98v-3.98l5.986-0.884l5.986-0.884V591.91v-36.231l-5.986-0.884l-5.986-0.884v-4.012
				v-4.012h41.055h41.055v11.056v11.056h-6.206h-6.206l-0.588-6.16l-0.588-6.16h-21.042h-21.042v14.878v14.878h20.454h20.454v4.896
				v4.896h-20.454h-20.454v16.457v16.457h21.482h21.482l0.588-6.16l0.588-6.16h6.169h6.169v11.024v11.024h-41.458H687.025z"/>
		</g>
		<g>
			<path fill="#DF632F" d="M870.775,545.887v10.171v10.171h-6.169h-6.169l-0.55-5.275l-0.55-5.275h-11.86h-11.86v36.231v36.231
				l5.985,0.884l5.985,0.884v3.98v3.98h-19.204h-19.204v-3.98v-3.98l5.985-0.884l5.985-0.884V591.91v-36.231H807.25h-11.898
				l-0.514,5.275l-0.514,5.275h-6.205h-6.205v-10.171v-10.171h44.431H870.775z"/>
		</g>
	</g>
</g>
</svg>
